<svg width="1235" height="567" viewBox="0 0 1235 567" fill="none" xmlns="http://www.w3.org/2000/svg">
<path d="M630.31 247C626.177 247 622.353 245.967 618.84 243.9C615.327 241.833 612.537 239.043 610.47 235.53C608.403 232.017 607.37 228.193 607.37 224.06V158.34C607.37 154.103 608.403 150.28 610.47 146.87C612.537 143.357 615.327 140.567 618.84 138.5C622.353 136.433 626.177 135.4 630.31 135.4H696.03C700.163 135.4 703.935 136.433 707.345 138.5C710.858 140.567 713.648 143.357 715.715 146.87C717.885 150.28 718.97 154.103 718.97 158.34V224.06C718.97 228.193 717.885 232.017 715.715 235.53C713.648 239.043 710.858 241.833 707.345 243.9C703.935 245.967 700.163 247 696.03 247H630.31ZM631.395 222.82H694.635V159.58H631.395V222.82Z" fill="#FFFCF5"/>
<path d="M757.119 247C752.986 247 749.163 245.967 745.649 243.9C742.136 241.833 739.346 239.043 737.279 235.53C735.213 232.017 734.179 228.193 734.179 224.06V135.4H758.204V222.82H821.444V135.4H845.779V224.06C845.779 228.193 844.694 232.017 842.524 235.53C840.458 239.043 837.668 241.833 834.154 243.9C830.744 245.967 826.973 247 822.839 247H757.119Z" fill="#FFFCF5"/>
<path d="M899.429 247V159.58H855.719V135.4H967.319V159.58H923.609V247H899.429Z" fill="#FFFCF5"/>
<path d="M977.671 247V135.4H1080.75V159.58H1002.01V179.11H1065.4V203.29H1002.01V247H977.671Z" fill="#FFFCF5"/>
<path d="M1090.15 247V135.4H1113.86V247H1090.15Z" fill="#FFFCF5"/>
<path d="M1166.78 247V159.58H1123.07V135.4H1234.67V159.58H1190.96V247H1166.78Z" fill="#FFFCF5"/>
<path d="M14 431L249 567L484 431L249 295L14 431Z" fill="#FFFCF5"/>
<path d="M263 271L498 406.5V135.5L263 0V136.544C263 136.544 285.585 143.9 295 154.772C304.415 165.644 308.464 176.219 308.5 191.5C308.536 206.781 306.5 211.717 299 222.858C291.5 234 283.349 238.201 277 247C270.651 255.799 263 271 263 271Z" fill="#FFFCF5"/>
<path d="M235 271L0 406.5V135.5L235 0V138.5C235 138.5 214.304 148.934 207 159.66C199.696 170.385 196.613 186.481 197.5 191.5C198.387 196.519 198.472 200.151 202 203.75C205.528 207.349 208.96 208.5 214 208.5C219.04 208.5 222.472 207.349 226 203.75C229.528 200.151 228.646 196.247 230.5 191.5C232.354 186.753 232.418 180.258 237.25 175.5C242.082 170.742 246.665 169 253.5 169C260.335 169 264.918 170.742 269.75 175.5C274.582 180.258 275.402 184.808 276.5 191.5C277.598 198.192 271.5 214.5 263.108 222.858C254.717 231.217 247.043 238.295 242.5 247C237.957 255.705 235 271 235 271Z" fill="#FFFCF5"/>
<path d="M607.835 406V294.245H631.86V381.82H719.435V406H607.835Z" fill="#FFFCF5"/>
<path d="M727.231 406V317.34C727.231 313.103 728.264 309.28 730.331 305.87C732.398 302.357 735.188 299.567 738.701 297.5C742.214 295.433 746.038 294.4 750.171 294.4H815.736C819.973 294.4 823.796 295.433 827.206 297.5C830.719 299.567 833.509 302.357 835.576 305.87C837.746 309.28 838.831 313.103 838.831 317.34V406H814.496V370.04H751.256V406H727.231ZM751.256 345.86H814.496V318.58H751.256V345.86Z" fill="#FFFCF5"/>
<path d="M855.406 406V294.4H939.726C943.86 294.4 947.631 295.433 951.041 297.5C954.555 299.567 957.345 302.357 959.411 305.87C961.581 309.28 962.666 313.103 962.666 317.34V338.265C962.666 339.608 962.563 340.9 962.356 342.14C962.253 343.277 961.995 344.362 961.581 345.395C963.131 347.358 964.423 349.632 965.456 352.215C966.49 354.798 967.006 357.382 967.006 359.965V383.06C967.006 387.193 965.921 391.017 963.751 394.53C961.685 398.043 958.895 400.833 955.381 402.9C951.971 404.967 948.148 406 943.911 406H855.406ZM879.431 381.82H942.671V361.36H879.431V381.82ZM879.431 337.18H938.331V318.58H879.431V337.18Z" fill="#FFFCF5"/>
</svg>
