<svg width="498" height="567" viewBox="0 0 498 567" fill="none" xmlns="http://www.w3.org/2000/svg">
<path d="M14 431L249 567L484 431L249 295L14 431Z" fill="#230636"/>
<path d="M263 271L498 406.5V135.5L263 0V136.544C263 136.544 285.585 143.9 295 154.772C304.415 165.644 308.464 176.219 308.5 191.5C308.536 206.781 306.5 211.717 299 222.858C291.5 234 283.349 238.201 277 247C270.651 255.799 263 271 263 271Z" fill="#230636"/>
<path d="M235 271L0 406.5V135.5L235 0V138.5C235 138.5 214.304 148.934 207 159.66C199.696 170.385 196.613 186.481 197.5 191.5C198.387 196.519 198.472 200.151 202 203.75C205.528 207.349 208.96 208.5 214 208.5C219.04 208.5 222.472 207.349 226 203.75C229.528 200.151 228.646 196.247 230.5 191.5C232.354 186.753 232.418 180.258 237.25 175.5C242.082 170.742 246.665 169 253.5 169C260.335 169 264.918 170.742 269.75 175.5C274.582 180.258 275.402 184.808 276.5 191.5C277.598 198.192 271.5 214.5 263.108 222.858C254.717 231.217 247.043 238.295 242.5 247C237.957 255.705 235 271 235 271Z" fill="#230636"/>
</svg>
